<svg width="262" height="19" fill="none" xmlns="http://www.w3.org/2000/svg"><path d="M1.3 18c-.2 0-.3 0-.5-.2a.6.6 0 0 1-.1-.4V1.8l.1-.4.5-.2h2.5c.4 0 .7.2.8.5l5.9 9.2V1.8c0-.2 0-.3.2-.4l.4-.2H14c.2 0 .3 0 .4.2l.2.4v15.6c0 .2 0 .3-.2.4l-.4.2h-2.6a.9.9 0 0 1-.8-.5L4.8 8.7v8.7l-.2.4-.4.2h-3ZM17 18l-.4-.1a.5.5 0 0 1-.1-.4v-.2L22 1.9c0-.2.2-.4.3-.5l.7-.2h3.5c.3 0 .5 0 .6.2l.4.5 5.6 15.4v.2l-.2.4-.3.1h-3c-.3 0-.6-.2-.7-.5L28 15h-6.4l-.9 2.5c-.1.3-.4.5-.8.5h-3Zm10-6.4-2.2-6.3-2.2 6.3h4.5Zm8.7 6.4c-.2 0-.3 0-.4-.2a.6.6 0 0 1-.2-.4V1.8c0-.2 0-.3.2-.4l.4-.2h2.6c.4 0 .7.2.8.5l4.3 7.6 4.2-7.6c.2-.3.4-.5.8-.5H51c.2 0 .3 0 .4.2.2 0 .2.2.2.4v15.6c0 .2 0 .3-.2.4l-.4.2h-2.9c-.1 0-.3 0-.4-.2a.6.6 0 0 1-.2-.4v-9l-2.7 5c-.2.4-.5.6-.8.6h-1.3c-.2 0-.3 0-.5-.2l-.3-.4-2.7-5v9c0 .2 0 .3-.2.4l-.4.2h-2.9ZM54 18l-.3-.1a.5.5 0 0 1-.2-.4v-.2l5.7-15.4c0-.2.1-.4.3-.5l.6-.2h3.6c.2 0 .4 0 .6.2.2.1.3.3.3.5l5.6 15.4v.2l-.1.4-.4.1h-3c-.3 0-.5-.2-.7-.5L65 15h-6.3l-1 2.5c0 .3-.3.5-.7.5h-3Zm10.1-6.4L62 5.3l-2.2 6.3H64Zm8.7 6.4c-.2 0-.3 0-.5-.2a.6.6 0 0 1-.1-.4V1.8l.1-.4.5-.2h2.5c.4 0 .7.2.8.5l5.9 9.2V1.8l.1-.4.5-.2h2.9c.1 0 .3 0 .4.2l.2.4v15.6l-.2.4-.4.2h-2.6a.9.9 0 0 1-.8-.5l-5.9-8.8v8.7l-.1.4-.5.2h-2.8Zm23.6.2a8 8 0 0 1-5.4-1.6 6.4 6.4 0 0 1-2.1-4.9 71.6 71.6 0 0 1 0-4.4c0-2 .8-3.6 2-4.7A8.1 8.1 0 0 1 96.5 1c1.5 0 2.8.2 4 .7 1 .5 2 1.1 2.5 1.9a4 4 0 0 1 1 2.4c0 .1 0 .2-.2.3l-.4.2h-3.9a.6.6 0 0 1-.2-.4 3 3 0 0 0-2.9-1.7c-1.9 0-2.9 1-3 3a64.9 64.9 0 0 0 0 4.2c.1 2.1 1.2 3.2 3.1 3.2 1 0 1.7-.3 2.3-.7.6-.5.8-1.3.8-2.3v-.4h-2.2l-.4-.2a.7.7 0 0 1-.2-.5V9c0-.2 0-.4.2-.5l.4-.2h6c.2 0 .4 0 .5.2l.1.5v2.7c0 1.3-.3 2.5-.9 3.5a6 6 0 0 1-2.7 2.3c-1.1.5-2.4.7-4 .7Zm9-.2-.4-.1a.5.5 0 0 1-.2-.4v-.2l5.7-15.4c0-.2.2-.4.3-.5l.6-.2h3.6c.3 0 .5 0 .6.2.2.1.3.3.3.5l5.7 15.4v.2l-.2.4-.3.1h-3c-.4 0-.6-.2-.7-.5l-1-2.5H110l-.9 2.5c-.1.3-.4.5-.8.5h-3Zm10-6.4-2.2-6.3-2.2 6.3h4.5Zm8.7 6.4c-.2 0-.3 0-.4-.2a.6.6 0 0 1-.2-.4V1.8c0-.2 0-.3.2-.4l.4-.2h2.5c.4 0 .7.2.9.5l5.8 9.2V1.8c0-.2 0-.3.2-.4l.4-.2h2.9c.2 0 .3 0 .4.2l.2.4v15.6c0 .2 0 .3-.2.4l-.4.2h-2.6a.9.9 0 0 1-.8-.5l-5.8-8.8v8.7c0 .2 0 .3-.2.4l-.4.2h-3Zm17.2 0c-.1 0-.3 0-.4-.2a.6.6 0 0 1-.2-.4V1.8l.2-.4.4-.2h3.2c.2 0 .3 0 .4.2.2 0 .2.2.2.4v12.6h7.3c.2 0 .3 0 .4.2l.2.4v2.4c0 .2 0 .3-.2.4l-.4.2h-11Zm14.4 0c-.2 0-.3 0-.5-.2a.6.6 0 0 1-.1-.4V1.8l.1-.4.5-.2h3.2c.2 0 .3 0 .4.2l.2.4v15.6c0 .2 0 .3-.2.4l-.4.2h-3.2Zm7.7 0c-.1 0-.3 0-.4-.2a.6.6 0 0 1-.2-.4V1.8l.2-.4.4-.2h3c.2 0 .4 0 .5.2l.2.4v5.3l4.4-5.4c.2-.3.5-.5 1-.5h3.4c.1 0 .3 0 .4.2l.1.3V2l-5.8 7.2 6.2 8v.7l-.4.1h-3.6c-.4 0-.7-.2-1-.5l-4.7-6v5.9c0 .2 0 .3-.2.4l-.4.2h-3Zm16 0c-.2 0-.3 0-.5-.2a.6.6 0 0 1-.1-.4V1.8l.1-.4.5-.2h3.1c.2 0 .3 0 .5.2l.1.4v12.6h7.3c.2 0 .3 0 .4.2l.2.4v2.4c0 .2 0 .3-.2.4l-.4.2h-11Zm12.7 0-.3-.1a.5.5 0 0 1-.2-.4v-.2l5.7-15.4c0-.2.1-.4.3-.5l.6-.2h3.6c.2 0 .4 0 .6.2.2.1.3.3.3.5l5.6 15.4v.2l-.1.4-.4.1h-3c-.3 0-.6-.2-.7-.5l-1-2.5h-6.3l-1 2.5c0 .3-.3.5-.7.5h-3Zm10.1-6.4L200 5.3l-2.2 6.3h4.4ZM211 18c-.2 0-.3 0-.5-.2a.6.6 0 0 1-.1-.4V1.8l.1-.4.5-.2h6.5c2 0 3.7.5 4.9 1.4 1.2 1 1.8 2.3 1.8 4a5 5 0 0 1-.8 3 5 5 0 0 1-2.2 1.7l3.3 6v.2l-.1.4-.4.1h-3.2a1 1 0 0 1-1-.6L217 12h-2.4v5.3c0 .2 0 .3-.2.4l-.4.2h-3.1Zm6.4-9.3c.8 0 1.3-.2 1.7-.6.4-.3.6-.8.6-1.5a2 2 0 0 0-.6-1.5c-.3-.4-1-.6-1.7-.6h-2.7v4.2h2.7ZM232 18c-.2 0-.3 0-.5-.2a.6.6 0 0 1-.1-.4v-1.7c0-.5.2-.9.6-1.2l2.5-2.4a123 123 0 0 0 5-4.3c.4-.6.6-1 .6-1.5 0-1.3-.7-2-2-2-.6 0-1 .3-1.4.7a3 3 0 0 0-.7 1.5c-.1.3-.4.5-.8.5h-3a.5.5 0 0 1-.5-.5 5.5 5.5 0 0 1 3-4.8c1-.6 2.2-.8 3.5-.8 1.3 0 2.5.2 3.4.6 1 .5 1.7 1 2.2 1.9a5 5 0 0 1-.3 5.8c-.7.9-1.7 1.9-3.2 3l-2.2 2.2h6.2l.4.1c.2.2.2.3.2.5v2.4c0 .2 0 .3-.2.4l-.4.2h-12.3Zm23.2 0c-.2 0-.3 0-.4-.2a.6.6 0 0 1-.2-.4v-2.7H247c-.1 0-.3 0-.4-.2a.6.6 0 0 1-.2-.4v-2.3c0-.2.1-.5.3-.7l7-9.5c.2-.3.5-.4.9-.4h3.5c.2 0 .3 0 .4.2l.2.4v9.3h2.1c.2 0 .3 0 .5.2l.1.4v2.4l-.1.4-.5.2h-2.1v2.7c0 .2 0 .3-.2.4l-.4.2h-3Zm-.5-6.7V5.6l-4 5.7h4Z" fill="#7296EE"/></svg>